<?xml version="1.0" encoding="utf-8"?>
<!-- Generator: Adobe Illustrator 23.0.3, SVG Export Plug-In . SVG Version: 6.00 Build 0)  -->
<svg version="1.1" id="Layer_1" xmlns="http://www.w3.org/2000/svg" xmlns:xlink="http://www.w3.org/1999/xlink" x="0px" y="0px"
	 viewBox="0 0 151.52 72.11" style="enable-background:new 0 0 151.52 72.11;" xml:space="preserve">
<style type="text/css">
	.st0{fill:#F6F6F6;}
	.st1{font-family:'Boomville-Regular';}
	.st2{font-size:70.2478px;}
</style>
<g>
	<g>
		<path class="st0" d="M5.75,39.62c0.29,1.1,0.91,2.01,1.78,2.72C7.88,42.62,8,42.9,7.97,43.37c-0.12,2.16,0.86,3.29,3.01,3.5
			c1.53,0.15,3-0.25,4.45-0.67c0.56-0.16,1.12-0.35,1.67-0.53c-0.31,0.32-0.65,0.57-0.98,0.83c-1.44,1.13-2.78,2.36-3.7,3.96
			c-1.23,2.12-1.15,4.2,0.24,6.23c0.21,0.3,0.33,0.66,0.49,0.99c0.46,0.94,0.84,1.94,1.4,2.82c0.59,0.94,1.54,1.43,2.68,1.22
			c0.62-0.11,1.21-0.56,1.82-0.59c0.62-0.03,1.24,0.36,1.88,0.42c1.81,0.16,3.14-0.74,4.25-2.05c1.49-1.77,2.15-3.91,2.6-6.12
			c0.18-0.9,0.14-1.86,0.39-2.74c0.37-1.29,0.92-2.53,1.41-3.78c0.12-0.31,0.3-0.61,0.5-0.89c0.33-0.47,0.73-0.58,1.16-0.36
			c-0.03,0.07-0.05,0.15-0.09,0.22c-1.59,3.18-1.81,6.41-0.51,9.75c0.78,1.99,1.88,3.67,3.99,4.39c1.12,0.38,2.2,0.79,3.24,1.35
			c1.4,0.76,2.77,0.54,3.87-0.51c0.42-0.4,0.73-0.91,1.11-1.35c0.13-0.15,0.33-0.29,0.52-0.35c0.77-0.24,1.58-0.38,2.33-0.69
			c1.98-0.82,2.62-2.24,1.98-4.28c-0.09-0.29-0.03-0.43,0.21-0.59c0.68-0.46,1.06-1.13,1.18-1.94c0.23-1.49-0.18-2.87-0.75-4.21
			c-1.21-2.89-3.54-4.48-6.44-5.33c-0.85-0.25-1.73-0.42-2.49-0.94c0.56-0.32,1.71-0.32,2.41-0.13c1.97,0.54,3.97,0.61,5.99,0.37
			c1.65-0.19,3.1-0.8,4.3-1.97c0.78-0.77,1.18-1.72,1.13-2.81c-0.02-0.48,0.13-0.82,0.39-1.19c1.26-1.78,1.25-3.59-0.1-5.25
			c-0.39-0.48-0.53-0.93-0.53-1.53c0-2.14-1.08-3.51-3.16-4.05c-0.31-0.08-0.64-0.09-0.95-0.19c-0.25-0.08-0.52-0.18-0.7-0.35
			c-0.49-0.48-1.04-0.81-1.73-0.93c-1.21-0.21-2.33,0.13-3.41,0.57c-4.04,1.64-6.33,4.76-7.41,8.88c-0.2,0.75-0.51,1.41-1.08,1.96
			c0.12-0.79,0.26-1.57,0.47-2.33c0.42-1.48,0.89-2.97,1.81-4.23c1.14-1.55,1.95-3.22,2.14-5.15c0.16-1.58,0.05-3.11-0.84-4.51
			c-0.79-1.24-1.88-1.89-3.36-1.88c-0.16,0-0.34-0.12-0.48-0.22c-0.52-0.38-0.98-0.88-1.55-1.14c-2.09-0.95-4.49,0.13-5.47,2.42
			c-0.17-0.01-0.34-0.03-0.52-0.04c-1.79-0.18-3.19,0.46-4.1,2.04c-0.26,0.46-0.47,0.96-0.63,1.47c-0.84,2.59-0.5,4.97,1.2,7.16
			c1.54,1.98,3.33,3.68,5.26,5.26c1.1,0.9,2.31,1.57,3.68,1.92c0.51,0.13,1.04,0.19,1.55,0.27c0,0.34,0,0.67,0,1
			c0.44,0,0.83,0,1.13,0c-0.28,0.8-0.54,1.59-0.81,2.37c0.04,0.06,0.09,0.12,0.13,0.18c0.44-0.02,0.88,0.01,1.31-0.07
			c0.72-0.13,1.42-0.21,2.11,0.09c0.44,0.18,0.73,0.51,0.69,1.02c-0.04,0.48-0.34,0.78-0.81,0.83c-0.38,0.04-0.78,0.07-1.15,0
			c-0.67-0.12-1.3-0.06-1.88,0.11c0.23,0.64,0.5,1.24,0.65,1.86c0.13,0.55,0,1.13-0.46,1.51c-0.45,0.36-1.26,0.26-1.78-0.15
			c-0.2-0.16-0.38-0.36-0.55-0.55c-0.1-0.1-0.18-0.22-0.31-0.39c-0.44,0.46-0.84,0.89-1.37,1.45c-0.05-0.63-0.09-1.13-0.13-1.68
			c-0.41,0-0.84,0-1.37,0c0.14-0.5,0.25-0.94,0.38-1.4c-1.38-0.39-2.79-0.26-4.2-0.05c-0.02-0.06-0.04-0.13-0.06-0.19
			c1.15-0.57,2.3-1.13,3.48-1.71c-0.07-0.1-0.14-0.25-0.24-0.37c-0.8-0.91-1.53-1.91-2.44-2.72c-3.47-3.09-7.39-5.3-12.12-5.69
			c-2.73-0.23-4.76,0.86-5.42,3.62c-0.04,0.17-0.16,0.36-0.3,0.48c-1.11,0.94-2.03,2-2.41,3.45 M54.62,13.86 M15.21,28.91
			c0.06,0.17,0.12,0.33,0.19,0.5c0.25,0.58,0.64,0.73,1.21,0.45c0.14-0.07,0.3-0.15,0.41-0.26c0.23-0.24,0.46-0.24,0.74-0.1
			c1.83,0.91,3.72,1.72,5.47,2.75c3.23,1.89,6,4.29,7.53,7.84c0.24,0.55,0.74,0.74,1.2,0.56c0.45-0.18,0.7-0.68,0.45-1.23
			c-0.35-0.76-0.74-1.52-1.23-2.2c-0.92-1.29-2.23-2.17-3.46-3.13c-2.73-2.13-5.78-3.73-8.89-5.22c-0.6-0.29-1.09-0.5-1.06-1.35
			c0.03-0.75-0.5-0.99-1.22-0.72c-0.15,0.05-0.29,0.12-0.43,0.18c-0.54-1.63-1.16-1.86-2.73-1.04c-0.09-0.11-0.17-0.23-0.26-0.35
			c-0.41-0.5-0.84-0.55-1.35-0.16c-0.14,0.11-0.24,0.27-0.39,0.36c-0.1,0.07-0.27,0.14-0.36,0.09c-0.69-0.32-1.6-0.17-2.09-0.94
			c-0.03-0.05-0.12-0.05-0.17-0.1c-0.11-0.11-0.24-0.22-0.31-0.36c-0.16-0.33-0.4-0.51-0.76-0.51c-0.37,0-0.65,0.14-0.81,0.5
			c-0.06,0.15-0.22,0.28-0.37,0.36C6.19,25,6.04,25.25,6.03,25.61c0,0.36,0.16,0.6,0.48,0.78c0.16,0.09,0.26,0.29,0.41,0.39
			c0.24,0.17,0.5,0.41,0.75,0.41c0.25,0,0.62-0.21,0.73-0.42c0.21-0.46,0.71-0.66,1-0.68c0.49-0.03,1.02,0.25,1.5,0.48
			c0.16,0.08,0.23,0.39,0.31,0.61c0.25,0.71,0.59,0.88,1.31,0.63c0.06-0.02,0.12-0.03,0.18-0.05
			C13.08,29.14,13.42,29.82,15.21,28.91z"/>
		<path class="st0" d="M41.87,42.06c-0.85-0.25-1.73-0.42-2.49-0.94c0.56-0.32,1.71-0.32,2.41-0.13c1.97,0.54,3.97,0.61,5.99,0.37
			c0.75-0.09,1.45-0.26,2.11-0.54c-0.01-1.03-0.48-2.05-0.88-3.05c-1.26,0.85-2.7,1.23-4.22,1.19c-1.29-0.04-2.6-0.17-3.85-0.48
			c-1.53-0.37-3.04-0.67-4.74-0.45c0.97-1.23,2.03-2.06,3.55-2.24c0.85-0.1,1.69-0.28,2.53-0.48c0.37-0.09,0.71-0.32,1.03-0.53
			c0.4-0.27,0.62-0.87,0.46-1.24c-0.18-0.43-0.59-0.46-0.98-0.48c-0.1-0.01-0.19,0-0.37,0c0.09-0.2,0.21-0.35,0.22-0.5
			c0.01-0.34,0.09-0.77-0.09-0.99c-0.19-0.24-0.64-0.39-0.97-0.37c-1.07,0.06-1.96,0.6-2.71,1.31c-0.94,0.89-1.79,1.87-2.68,2.82
			c-0.13,0.14-0.24,0.29-0.35,0.44c-0.04-0.01-0.08-0.02-0.11-0.03c0.04-0.31,0.06-0.62,0.14-0.92c0.44-1.79,1.33-3.37,2.22-4.96
			c1.15-2.05,2.92-3.28,5.23-3.42c0.57-0.03,1.16-0.04,1.74-0.02c-0.03-0.09-0.06-0.18-0.07-0.29c-0.49-0.87-0.92-1.78-1.37-2.68
			c-0.19,0.07-0.38,0.14-0.57,0.22c-4.04,1.64-6.33,4.76-7.41,8.88c-0.2,0.75-0.51,1.41-1.08,1.96c0.12-0.79,0.26-1.57,0.47-2.33
			c0.42-1.48,0.89-2.97,1.81-4.23c1.14-1.55,1.95-3.22,2.14-5.15c0.16-1.58,0.05-3.11-0.84-4.51c-0.79-1.24-1.88-1.89-3.36-1.87
			c-0.16,0-0.34-0.12-0.48-0.22c-0.52-0.38-0.98-0.88-1.55-1.14c-2.09-0.95-4.49,0.13-5.47,2.42c-0.17-0.01-0.34-0.03-0.52-0.04
			c-1.79-0.18-3.19,0.46-4.1,2.04c-0.26,0.46-0.47,0.96-0.63,1.47c-0.84,2.59-0.5,4.97,1.2,7.16c1.54,1.98,3.33,3.68,5.26,5.26
			c1.1,0.9,2.31,1.57,3.68,1.92c0.51,0.13,1.04,0.19,1.55,0.27v1h1.13c-0.28,0.8-0.54,1.59-0.81,2.37l0.13,0.18
			c0.44-0.02,0.88,0.01,1.31-0.07c0.72-0.13,1.42-0.21,2.11,0.09c0.44,0.18,0.73,0.51,0.69,1.02c-0.04,0.48-0.34,0.78-0.81,0.83
			c-0.38,0.04-0.78,0.07-1.15,0c-0.67-0.12-1.3-0.06-1.88,0.11c0.23,0.64,0.5,1.24,0.65,1.86c0.13,0.55,0,1.13-0.46,1.51
			c-0.45,0.36-1.26,0.26-1.78-0.15c-0.2-0.16-0.38-0.36-0.55-0.55c-0.1-0.1-0.18-0.22-0.31-0.39c-0.44,0.46-0.84,0.89-1.37,1.45
			c-0.05-0.63-0.09-1.13-0.13-1.68h-1.37c0.14-0.5,0.25-0.94,0.38-1.4c-1.38-0.39-2.79-0.26-4.2-0.05
			c-0.02-0.06-0.04-0.13-0.06-0.19c1.15-0.57,2.3-1.13,3.48-1.71c-0.07-0.1-0.14-0.25-0.24-0.37c-0.8-0.91-1.53-1.91-2.44-2.72
			c-3.47-3.09-7.39-5.3-12.12-5.69c-2.73-0.23-4.76,0.86-5.42,3.62c-0.04,0.17-0.16,0.36-0.3,0.48c-1.11,0.94-2.03,2-2.41,3.45v1.07
			c0.29,1.1,0.91,2.01,1.78,2.72C7.88,42.62,8,42.9,7.97,43.37c-0.12,2.16,0.86,3.29,3.01,3.5c1.53,0.15,3-0.25,4.45-0.67
			c0.56-0.16,1.12-0.35,1.67-0.53c-0.31,0.32-0.65,0.57-0.98,0.83c-1.44,1.13-2.78,2.36-3.7,3.96c-1.23,2.12-1.15,4.2,0.24,6.23
			c0.21,0.3,0.33,0.66,0.49,0.99c0.46,0.94,0.84,1.94,1.4,2.82c0.59,0.94,1.54,1.43,2.68,1.22c0.62-0.11,1.21-0.56,1.82-0.59
			c0.62-0.03,1.24,0.36,1.88,0.42c1.81,0.16,3.14-0.74,4.25-2.05c1.49-1.77,2.15-3.91,2.6-6.12c0.18-0.9,0.14-1.86,0.39-2.74
			c0.37-1.29,0.92-2.53,1.41-3.78c0.12-0.31,0.3-0.61,0.5-0.89c0.33-0.47,0.73-0.58,1.16-0.36c-0.03,0.07-0.05,0.15-0.09,0.22
			c-1.59,3.18-1.81,6.41-0.51,9.75c0.78,1.99,1.88,3.67,3.99,4.39c1.12,0.38,2.2,0.79,3.24,1.35c1.4,0.76,2.77,0.54,3.87-0.51
			c0.42-0.4,0.73-0.91,1.11-1.35c0.13-0.15,0.33-0.29,0.52-0.35c0.77-0.24,1.58-0.38,2.33-0.69c1.98-0.82,2.62-2.24,1.98-4.28
			c-0.09-0.29-0.03-0.43,0.21-0.59c0.68-0.46,1.06-1.13,1.18-1.94c0.23-1.49-0.18-2.87-0.75-4.21
			C47.11,44.5,44.78,42.92,41.87,42.06z M33.79,33.38c-0.06,0.28-0.26,0.34-0.47,0.19c-0.24-0.16-0.49-0.34-0.65-0.57
			c-0.72-1.04-1.08-2.19-1.02-3.48c0.04-0.82,0-1.66-0.06-2.48c-0.06-0.81-0.57-1.28-1.27-1.27c-0.56,0.01-1.12,0.55-1.13,1.26
			c-0.01,0.6,0.08,1.23,0.25,1.8c0.41,1.32,1.25,2.41,2.06,3.51c0.3,0.4,0.58,0.81,0.87,1.22c-0.04,0.06-0.08,0.13-0.12,0.19
			c-0.6-0.26-1.27-0.43-1.79-0.8c-2.42-1.74-4.35-3.9-5.35-6.77c-0.38-1.07-0.62-2.19-0.37-3.35c0.18-0.82,0.58-1.51,1.18-2.09
			c0.82-0.8,1.8-0.9,2.85-0.61c0.23,0.06,0.46,0.15,0.72,0.23c0.03-0.07,0.08-0.13,0.1-0.2c0.54-1.68,2.21-2.51,3.84-1.82
			c2.63,1.11,3.47,2.92,3.2,5.74c-0.14,1.53-0.65,2.94-1.46,4.24c-0.67,1.08-1.11,2.22-1.09,3.53
			C34.09,32.37,33.9,32.88,33.79,33.38z M15.58,44.33c-0.73,0.09-1.5,0.07-2.23-0.03c-1.25-0.18-1.99-0.96-2.21-2.2
			c-0.05-0.28-0.16-0.41-0.42-0.51c-1.72-0.7-1.82-1.83-1.62-3.08c0.07-0.45,0.47-0.95,0.86-1.23c0.51-0.37,1.17-0.54,1.75-0.82
			c0.25-0.12,0.49-0.28,0.69-0.47c0.5-0.49,0.93-1.05,1.45-1.5c0.8-0.7,1.7-0.97,2.82-0.86c4.32,0.45,7.56,2.78,10.57,5.76
			c-0.8,0.24-1.54,0.38-2.21,0.69c-1.09,0.49-2.18,1.01-3.18,1.66C19.92,43.01,17.91,44.06,15.58,44.33z M28.53,46.4
			c-1.03,1.12-1.67,2.47-2.19,3.87c-0.35,0.94-0.63,1.91-0.88,2.88c-0.45,1.75-1.26,3.26-2.66,4.43c-1.08,0.9-2.25,1.08-3.54,0.47
			c-0.18-0.09-0.4-0.09-0.6-0.11c-0.5-0.04-1.01-0.03-1.5-0.1c-1.6-0.24-1.9-1.33-1.9-2.54c0-0.02,0.01-0.03,0.01-0.05
			c0.12-0.73,0.13-1.4-0.11-2.16c-0.43-1.32-0.06-2.67,0.64-3.79c2.27-3.61,5.41-6.1,9.69-6.92c0.89-0.17,1.8-0.23,2.7-0.04
			c0.02,0.06,0.05,0.13,0.07,0.19c-0.52,0.26-1.02,0.61-1.58,0.77c-1.46,0.44-2.79,1.05-3.83,2.2c-0.07,0.07-0.13,0.15-0.19,0.22
			c-0.78,1.01-0.7,1.53,0.37,2.21c-0.11,0.38-0.26,0.76-0.32,1.15c-0.11,0.68,0.31,1.05,0.99,0.91c0.62-0.13,1.13-0.46,1.47-0.97
			c0.5-0.74,0.94-1.51,1.36-2.29c0.38-0.71,0.81-1.39,1.49-1.82c0.36-0.23,0.8-0.35,1.3-0.56C29.26,45.23,29,45.88,28.53,46.4z
			 M45.76,50.77c-0.14,0.6-0.41,1.12-0.85,1.56c-0.11,0.11-0.14,0.35-0.14,0.53c0,0.19,0.08,0.38,0.11,0.57
			c0.28,1.96-0.6,3.13-2.71,3.54c-0.51,0.1-0.91,0.27-1.28,0.66c-0.65,0.7-1.54,0.96-2.41,0.59c-1.7-0.73-3.49-1.36-4.82-2.74
			c-1.37-1.43-2.01-3.14-1.89-5.14c0.08-1.4,0.35-2.73,0.94-4c0.08-0.16,0.17-0.31,0.25-0.47c0.02-0.04,0.05-0.08,0.11-0.19
			c0.54,0.69,0.6,1.42,0.69,2.14c0.07,0.58,0.12,1.17,0.31,1.71c0.4,1.14,1.71,1.57,2.71,0.88c0.26-0.18,0.43-0.56,0.51-0.88
			c0.09-0.33,0.02-0.7,0.02-1.05c0.29,0,0.61,0.02,0.92,0c0.75-0.05,1.37-0.36,1.69-1.05c0.34-0.73,0.21-1.46-0.34-2.04
			c-0.36-0.38-0.84-0.65-1.26-0.98c-0.44-0.34-0.87-0.69-1.3-1.04c0.03-0.07,0.05-0.15,0.08-0.22c0.5-0.01,1.01-0.07,1.51-0.03
			c2.47,0.22,4.59,1.18,6.14,3.15C45.75,47.59,46.15,49.1,45.76,50.77z"/>
		<path class="st0" d="M15.21,28.91c-1.79,0.91-2.13,0.23-2.51-1.16c-0.06,0.02-0.12,0.03-0.18,0.05c-0.72,0.25-1.06,0.08-1.31-0.63
			c-0.08-0.22-0.14-0.53-0.31-0.61c-0.48-0.23-1.01-0.51-1.5-0.48c-0.28,0.01-0.78,0.22-1,0.68c-0.1,0.22-0.47,0.42-0.73,0.42
			c-0.25,0-0.52-0.24-0.75-0.41c-0.15-0.11-0.25-0.31-0.41-0.39c-0.32-0.17-0.49-0.42-0.48-0.78c0-0.36,0.16-0.61,0.49-0.77
			c0.15-0.07,0.3-0.21,0.37-0.36c0.16-0.37,0.44-0.51,0.81-0.5c0.36,0,0.6,0.18,0.76,0.51c0.06,0.14,0.2,0.24,0.31,0.36
			c0.04,0.04,0.14,0.05,0.17,0.1c0.49,0.77,1.4,0.62,2.09,0.94c0.09,0.04,0.26-0.03,0.36-0.09c0.15-0.1,0.25-0.26,0.39-0.36
			c0.51-0.4,0.94-0.34,1.35,0.16c0.09,0.11,0.17,0.23,0.26,0.35c1.56-0.82,2.18-0.59,2.73,1.04c0.14-0.06,0.29-0.12,0.43-0.18
			c0.72-0.27,1.25-0.03,1.22,0.72c-0.03,0.86,0.47,1.07,1.06,1.35c3.11,1.49,6.15,3.09,8.89,5.22c1.23,0.96,2.54,1.84,3.46,3.13
			c0.49,0.68,0.88,1.44,1.23,2.2c0.25,0.54,0,1.05-0.45,1.23c-0.46,0.18-0.96-0.01-1.2-0.56c-1.53-3.56-4.3-5.95-7.53-7.84
			c-1.76-1.03-3.65-1.84-5.47-2.75c-0.28-0.14-0.51-0.14-0.74,0.1c-0.11,0.11-0.26,0.19-0.41,0.26c-0.57,0.28-0.97,0.14-1.21-0.45
			C15.33,29.24,15.27,29.08,15.21,28.91z"/>
		<path class="st0" d="M33.06,45.67c0.54,0.69,0.6,1.42,0.69,2.14c0.07,0.58,0.12,1.17,0.31,1.71c0.4,1.14,1.71,1.57,2.71,0.88
			c0.26-0.18,0.43-0.56,0.51-0.88c0.09-0.33,0.02-0.7,0.02-1.05c0.29,0,0.61,0.02,0.92,0c0.75-0.05,1.37-0.36,1.69-1.05
			c0.34-0.73,0.21-1.46-0.34-2.04c-0.36-0.38-0.84-0.65-1.26-0.98c-0.44-0.34-0.87-0.69-1.3-1.04c0.03-0.07,0.05-0.15,0.08-0.22
			c0.5-0.01,1.01-0.07,1.51-0.03c2.47,0.22,4.59,1.18,6.14,3.15c1.03,1.31,1.43,2.82,1.04,4.49c-0.14,0.6-0.41,1.12-0.85,1.56
			c-0.11,0.11-0.14,0.35-0.14,0.53c0,0.19,0.08,0.38,0.11,0.57c0.28,1.96-0.6,3.13-2.71,3.54c-0.51,0.1-0.91,0.27-1.28,0.66
			c-0.65,0.7-1.54,0.96-2.41,0.59c-1.7-0.73-3.49-1.36-4.82-2.74c-1.37-1.43-2.01-3.14-1.89-5.14c0.08-1.4,0.35-2.73,0.94-4
			c0.08-0.16,0.17-0.31,0.25-0.47C32.97,45.83,32.99,45.79,33.06,45.67z"/>
		<path class="st0" d="M35.72,35.74c0.04-0.31,0.06-0.62,0.14-0.92c0.44-1.79,1.33-3.37,2.22-4.96c1.15-2.05,2.92-3.28,5.23-3.42
			c1.66-0.1,3.38,0.02,5.01,0.38c2.03,0.44,2.59,1.87,2.36,3.92c-0.12,1.11-0.44,1.67-1.4,2.91c0.22,0.32,0.47,0.64,0.68,0.99
			c0.65,1.11,0.47,2.09-0.55,2.87c-1.35,1.04-2.93,1.5-4.6,1.46c-1.29-0.04-2.6-0.17-3.85-0.48c-1.53-0.37-3.04-0.67-4.74-0.45
			c0.97-1.23,2.03-2.06,3.55-2.24c0.85-0.1,1.69-0.28,2.53-0.48c0.37-0.09,0.71-0.32,1.03-0.53c0.4-0.27,0.62-0.87,0.46-1.24
			c-0.18-0.43-0.59-0.46-0.98-0.48c-0.1-0.01-0.19,0-0.37,0c0.09-0.2,0.21-0.35,0.22-0.5c0.01-0.34,0.09-0.77-0.09-0.99
			c-0.19-0.24-0.64-0.39-0.97-0.37c-1.07,0.06-1.96,0.6-2.71,1.31c-0.94,0.89-1.79,1.87-2.68,2.82c-0.13,0.14-0.24,0.29-0.35,0.44
			C35.8,35.77,35.76,35.75,35.72,35.74z"/>
		<path class="st0" d="M28.26,42.54c-0.52,0.26-1.02,0.61-1.58,0.77c-1.46,0.44-2.79,1.05-3.83,2.2c-0.07,0.07-0.13,0.15-0.19,0.22
			c-0.78,1.01-0.7,1.53,0.37,2.21c-0.11,0.38-0.26,0.76-0.32,1.15c-0.11,0.68,0.31,1.05,0.99,0.91c0.62-0.13,1.13-0.46,1.47-0.97
			c0.5-0.74,0.94-1.51,1.36-2.29c0.38-0.71,0.81-1.39,1.49-1.82c0.36-0.23,0.8-0.35,1.3-0.56c-0.07,0.88-0.32,1.53-0.8,2.05
			c-1.03,1.12-1.67,2.47-2.19,3.87c-0.35,0.94-0.63,1.91-0.88,2.88c-0.45,1.75-1.26,3.26-2.66,4.43c-1.08,0.9-2.25,1.08-3.54,0.47
			c-0.18-0.09-0.4-0.09-0.6-0.11c-0.5-0.04-1.01-0.03-1.5-0.1c-1.6-0.24-1.9-1.33-1.9-2.54c0-0.02,0.01-0.03,0.01-0.05
			c0.12-0.73,0.13-1.4-0.11-2.16c-0.43-1.32-0.06-2.67,0.64-3.79c2.27-3.61,5.41-6.1,9.69-6.92c0.89-0.17,1.8-0.23,2.7-0.04
			C28.21,42.41,28.23,42.47,28.26,42.54z"/>
		<path class="st0" d="M32.26,33.76c-0.6-0.26-1.27-0.43-1.79-0.8c-2.42-1.74-4.35-3.9-5.35-6.77c-0.38-1.07-0.62-2.19-0.37-3.35
			c0.18-0.82,0.58-1.51,1.18-2.09c0.82-0.8,1.8-0.9,2.85-0.61c0.23,0.06,0.46,0.15,0.72,0.23c0.03-0.07,0.08-0.13,0.1-0.2
			c0.54-1.68,2.21-2.51,3.84-1.82c2.63,1.11,3.47,2.92,3.2,5.74c-0.14,1.53-0.65,2.94-1.46,4.24c-0.67,1.08-1.11,2.22-1.09,3.53
			c0.01,0.51-0.18,1.01-0.29,1.52c-0.06,0.28-0.26,0.34-0.47,0.19c-0.24-0.16-0.49-0.34-0.65-0.57c-0.72-1.04-1.08-2.19-1.02-3.48
			c0.04-0.82,0-1.66-0.06-2.48c-0.06-0.81-0.57-1.28-1.27-1.27c-0.56,0.01-1.12,0.55-1.13,1.26c-0.01,0.6,0.08,1.23,0.25,1.8
			c0.41,1.32,1.25,2.41,2.06,3.51c0.3,0.4,0.58,0.81,0.87,1.22C32.33,33.63,32.29,33.69,32.26,33.76z"/>
		<path class="st0" d="M27.25,39.4c-0.8,0.24-1.54,0.38-2.21,0.69c-1.09,0.49-2.18,1.01-3.18,1.66c-1.94,1.27-3.95,2.32-6.28,2.59
			c-0.73,0.09-1.5,0.07-2.23-0.03c-1.25-0.18-1.99-0.96-2.21-2.2c-0.05-0.28-0.16-0.41-0.42-0.51c-1.72-0.7-1.82-1.83-1.62-3.08
			c0.07-0.45,0.47-0.95,0.86-1.23c0.51-0.37,1.17-0.54,1.75-0.82c0.25-0.12,0.49-0.28,0.69-0.47c0.5-0.49,0.93-1.05,1.45-1.5
			c0.8-0.7,1.7-0.97,2.82-0.86C21,34.08,24.25,36.42,27.25,39.4z M24.74,38.7c0.01-0.07,0.02-0.13,0.04-0.2
			c-1.01-0.41-2-0.91-3.05-1.19c-0.76-0.2-1.6-0.19-2.39-0.1c-0.35,0.04-0.77,0.43-0.97,0.76c-0.22,0.37,0.24,0.6,0.48,0.85
			c0.01,0.01,0.01,0.03,0.03,0.07c-0.06,0.06-0.14,0.11-0.2,0.18c-0.47,0.45-0.48,0.89,0.09,1.17c0.41,0.21,0.93,0.31,1.38,0.28
			C21.86,40.42,23.31,39.58,24.74,38.7z"/>
		<path class="st0" d="M24.74,38.7c-1.43,0.88-2.88,1.71-4.6,1.82c-0.46,0.03-0.97-0.08-1.38-0.28c-0.57-0.29-0.56-0.73-0.09-1.17
			c0.07-0.06,0.14-0.12,0.2-0.18c-0.01-0.04-0.02-0.06-0.03-0.07c-0.24-0.25-0.7-0.48-0.48-0.85c0.2-0.34,0.61-0.73,0.97-0.76
			c0.79-0.09,1.64-0.1,2.39,0.1c1.05,0.28,2.04,0.79,3.05,1.19C24.77,38.57,24.75,38.64,24.74,38.7z"/>
	</g>
	<text transform="matrix(1 0 0 1 40.319 55.1628)" class="st0 st1 st2">Mahalo</text>
</g>
</svg>
