<?xml version="1.0" encoding="utf-8"?>
<!-- Generator: Adobe Illustrator 23.0.3, SVG Export Plug-In . SVG Version: 6.00 Build 0)  -->
<svg version="1.1" xmlns="http://www.w3.org/2000/svg" xmlns:xlink="http://www.w3.org/1999/xlink" x="0px" y="0px"
	 viewBox="0 0 386.37 160.07" style="enable-background:new 0 0 386.37 160.07;" xml:space="preserve">
<style type="text/css">
	.st0{fill:#FFFFFF;}
	.st1{font-family:'Boomville-Regular';}
	.st2{font-size:188.3274px;}
</style>
<g id="Layer_2">
</g>
<g id="Layer_1">
	<g>
		<path class="st0" d="M4.49,90.25c0-22.06,0-44.11,0-66.17c43.68,0,87.35,0,131.03,0c0,43.68,0,87.35,0,131.03
			c-43.68,0-87.35,0-131.03,0c0-20.66,0-41.32,0-61.98c0.79,2.96,2.44,5.38,4.78,7.3c0.93,0.76,1.26,1.52,1.19,2.75
			c-0.32,5.78,2.3,8.83,8.06,9.38c4.1,0.39,8.04-0.67,11.93-1.8c1.5-0.44,2.99-0.94,4.48-1.41c-0.82,0.87-1.73,1.54-2.62,2.23
			c-3.86,3.03-7.44,6.33-9.93,10.63c-3.29,5.69-3.09,11.26,0.65,16.7c0.55,0.81,0.89,1.76,1.33,2.65c1.23,2.53,2.26,5.19,3.76,7.55
			c1.59,2.51,4.12,3.83,7.18,3.27c1.67-0.31,3.23-1.51,4.88-1.59c1.65-0.08,3.33,0.97,5.03,1.12c4.84,0.44,8.42-1.98,11.39-5.5
			c4-4.74,5.76-10.47,6.96-16.4c0.49-2.42,0.36-5,1.05-7.35c1-3.45,2.46-6.77,3.78-10.12c0.33-0.84,0.81-1.65,1.33-2.39
			c0.88-1.26,1.95-1.56,3.11-0.97c-0.08,0.19-0.14,0.39-0.24,0.58c-4.27,8.51-4.86,17.18-1.36,26.13
			c2.08,5.33,5.05,9.85,10.68,11.76c3,1.02,5.89,2.1,8.69,3.63c3.76,2.05,7.44,1.43,10.37-1.36c1.12-1.07,1.95-2.44,2.97-3.62
			c0.36-0.41,0.89-0.77,1.41-0.93c2.07-0.65,4.25-1.03,6.24-1.85c5.31-2.19,7.03-6,5.31-11.46c-0.25-0.79-0.09-1.15,0.55-1.58
			c1.83-1.24,2.83-3.03,3.16-5.2c0.61-3.99-0.49-7.7-2-11.3c-3.25-7.76-9.49-12-17.27-14.3c-2.28-0.67-4.63-1.14-6.69-2.51
			c1.51-0.85,4.59-0.85,6.46-0.34c5.29,1.45,10.64,1.63,16.06,0.99c4.43-0.52,8.32-2.16,11.52-5.29c2.1-2.06,3.16-4.6,3.04-7.52
			c-0.05-1.28,0.34-2.2,1.05-3.2c3.39-4.77,3.34-9.63-0.26-14.07c-1.04-1.28-1.41-2.5-1.41-4.1c0.01-5.73-2.91-9.4-8.47-10.85
			c-0.84-0.22-1.73-0.25-2.55-0.5c-0.66-0.2-1.39-0.47-1.87-0.94c-1.32-1.3-2.79-2.17-4.63-2.49c-3.24-0.57-6.25,0.35-9.15,1.53
			c-10.83,4.4-16.97,12.77-19.88,23.8c-0.53,2-1.36,3.79-2.89,5.26c0.31-2.12,0.69-4.21,1.27-6.24c1.14-3.98,2.38-7.96,4.85-11.34
			c3.05-4.16,5.22-8.64,5.75-13.81c0.43-4.23,0.12-8.34-2.25-12.09c-2.11-3.33-5.05-5.05-9.02-5.03c-0.43,0-0.92-0.31-1.3-0.59
			c-1.4-1.01-2.63-2.37-4.17-3.06c-5.61-2.55-12.04,0.35-14.67,6.49c-0.44-0.04-0.92-0.07-1.39-0.12c-4.8-0.47-8.55,1.23-10.98,5.46
			c-0.71,1.23-1.25,2.59-1.69,3.94c-2.25,6.95-1.35,13.33,3.22,19.21c4.12,5.31,8.93,9.86,14.1,14.1c2.95,2.42,6.18,4.21,9.87,5.15
			c1.37,0.35,2.8,0.5,4.15,0.73c0,0.92,0,1.8,0,2.69c1.17,0,2.23,0,3.02,0c-0.74,2.16-1.46,4.25-2.17,6.34
			c0.11,0.16,0.23,0.33,0.34,0.49c1.17-0.06,2.37,0.02,3.51-0.19c1.92-0.36,3.81-0.55,5.65,0.23c1.17,0.49,1.96,1.38,1.84,2.72
			c-0.11,1.28-0.92,2.09-2.18,2.23c-1.02,0.12-2.08,0.19-3.08,0.01c-1.79-0.32-3.49-0.16-5.03,0.3c0.62,1.72,1.35,3.31,1.74,4.98
			c0.35,1.49,0.01,3.03-1.25,4.04c-1.2,0.96-3.37,0.7-4.78-0.39c-0.54-0.42-1.01-0.96-1.49-1.46c-0.26-0.28-0.47-0.6-0.82-1.05
			c-1.17,1.23-2.26,2.38-3.67,3.88c-0.13-1.69-0.23-3.02-0.35-4.51c-1.09,0-2.24,0-3.67,0c0.36-1.35,0.68-2.53,1.01-3.76
			c-3.71-1.04-7.47-0.7-11.25-0.14c-0.05-0.17-0.11-0.34-0.16-0.51c3.09-1.52,6.17-3.04,9.33-4.59c-0.18-0.28-0.37-0.67-0.65-0.98
			c-2.15-2.45-4.11-5.13-6.53-7.28c-9.3-8.29-19.82-14.2-32.5-15.26c-7.31-0.61-12.77,2.3-14.54,9.71c-0.11,0.47-0.43,0.97-0.8,1.28
			C7.98,83.51,5.51,86.37,4.49,90.25z M29.86,64.42c0.17,0.45,0.32,0.89,0.5,1.33c0.66,1.56,1.73,1.96,3.25,1.2
			c0.39-0.19,0.8-0.4,1.09-0.71c0.62-0.65,1.24-0.63,1.98-0.26c4.9,2.45,9.96,4.61,14.68,7.37c8.67,5.08,16.09,11.49,20.2,21.03
			c0.63,1.47,1.98,1.98,3.21,1.49c1.21-0.48,1.87-1.83,1.2-3.29c-0.93-2.04-1.99-4.07-3.29-5.89c-2.46-3.45-5.97-5.82-9.27-8.39
			c-7.33-5.71-15.5-10-23.82-14c-1.6-0.77-2.93-1.33-2.85-3.63c0.07-2.02-1.35-2.65-3.27-1.93c-0.39,0.14-0.77,0.32-1.16,0.48
			c-1.46-4.38-3.12-4.98-7.32-2.79c-0.23-0.31-0.45-0.63-0.7-0.92c-1.11-1.34-2.26-1.48-3.63-0.42c-0.38,0.29-0.66,0.71-1.04,0.98
			c-0.27,0.18-0.72,0.36-0.96,0.25c-1.86-0.85-4.3-0.45-5.61-2.53c-0.08-0.13-0.33-0.14-0.44-0.26c-0.3-0.3-0.65-0.59-0.82-0.96
			c-0.42-0.88-1.06-1.36-2.04-1.36c-1,0-1.73,0.37-2.17,1.35C7.4,52.94,6.98,53.3,6.58,53.5c-0.89,0.44-1.31,1.1-1.32,2.07
			c0,0.96,0.43,1.62,1.3,2.08c0.43,0.23,0.69,0.77,1.1,1.05c0.64,0.44,1.35,1.1,2.02,1.1c0.67,0,1.67-0.55,1.95-1.14
			c0.57-1.23,1.91-1.77,2.67-1.81c1.33-0.07,2.75,0.67,4.02,1.29c0.44,0.21,0.62,1.05,0.82,1.64c0.67,1.9,1.59,2.36,3.51,1.68
			c0.16-0.06,0.33-0.09,0.49-0.14C24.16,65.04,25.06,66.87,29.86,64.42z"/>
		<path class="st0" d="M101.35,99.69c-2.28-0.67-4.63-1.14-6.69-2.51c1.51-0.85,4.59-0.85,6.46-0.34
			c5.29,1.45,10.64,1.63,16.06,0.99c2-0.24,3.89-0.71,5.65-1.44c-0.01-2.75-1.28-5.49-2.35-8.17c-3.39,2.27-7.24,3.3-11.31,3.19
			c-3.46-0.1-6.97-0.46-10.32-1.27c-4.1-1-8.14-1.79-12.71-1.21c2.61-3.31,5.45-5.53,9.51-5.99c2.28-0.26,4.54-0.74,6.77-1.3
			c0.98-0.24,1.9-0.84,2.76-1.42c1.08-0.73,1.66-2.33,1.25-3.33c-0.48-1.16-1.58-1.23-2.64-1.29c-0.26-0.01-0.52,0-1,0
			c0.25-0.54,0.57-0.94,0.59-1.35c0.03-0.9,0.23-2.08-0.24-2.65c-0.52-0.64-1.72-1.05-2.59-0.99c-2.86,0.17-5.26,1.62-7.27,3.52
			c-2.52,2.38-4.8,5.02-7.18,7.56c-0.34,0.37-0.63,0.78-0.95,1.17c-0.1-0.03-0.2-0.06-0.3-0.09c0.12-0.83,0.17-1.67,0.37-2.48
			c1.18-4.79,3.57-9.04,5.96-13.29c3.08-5.48,7.83-8.79,14.02-9.17c1.54-0.09,3.1-0.1,4.66-0.05c-0.09-0.24-0.16-0.49-0.19-0.77
			c-1.31-2.34-2.47-4.76-3.68-7.19c-0.52,0.18-1.03,0.37-1.54,0.58c-10.83,4.4-16.97,12.77-19.88,23.8c-0.53,2-1.36,3.79-2.89,5.26
			c0.31-2.12,0.69-4.21,1.27-6.24c1.14-3.98,2.38-7.96,4.85-11.34c3.05-4.16,5.22-8.64,5.75-13.81c0.43-4.23,0.12-8.34-2.25-12.09
			c-2.11-3.33-5.05-5.05-9.02-5.03c-0.43,0-0.92-0.31-1.3-0.59c-1.4-1.01-2.63-2.37-4.17-3.06c-5.61-2.55-12.04,0.35-14.67,6.49
			c-0.44-0.04-0.92-0.07-1.39-0.12c-4.8-0.47-8.55,1.23-10.98,5.46c-0.71,1.23-1.25,2.59-1.69,3.94
			c-2.25,6.95-1.35,13.33,3.22,19.21c4.12,5.31,8.93,9.86,14.1,14.1c2.95,2.42,6.18,4.21,9.87,5.15c1.37,0.35,2.8,0.5,4.15,0.73
			v2.69h3.02c-0.74,2.16-1.46,4.25-2.17,6.34l0.34,0.49c1.17-0.05,2.37,0.02,3.51-0.19c1.92-0.36,3.81-0.55,5.65,0.23
			c1.17,0.49,1.96,1.38,1.84,2.72c-0.11,1.28-0.92,2.09-2.18,2.23c-1.02,0.12-2.08,0.19-3.08,0.01c-1.79-0.32-3.49-0.16-5.03,0.3
			c0.62,1.72,1.35,3.31,1.74,4.98c0.35,1.49,0.01,3.03-1.25,4.04c-1.2,0.96-3.37,0.7-4.78-0.39c-0.54-0.42-1.01-0.96-1.49-1.46
			c-0.26-0.28-0.47-0.6-0.82-1.05c-1.17,1.23-2.26,2.38-3.67,3.88c-0.13-1.69-0.23-3.02-0.35-4.51h-3.67
			c0.36-1.35,0.68-2.53,1.01-3.76c-3.71-1.04-7.47-0.7-11.25-0.14c-0.05-0.17-0.11-0.34-0.16-0.51c3.09-1.52,6.17-3.04,9.33-4.59
			c-0.18-0.28-0.37-0.67-0.65-0.98c-2.15-2.45-4.11-5.13-6.53-7.28c-9.3-8.29-19.82-14.2-32.5-15.26
			c-7.31-0.61-12.77,2.3-14.54,9.71c-0.11,0.47-0.43,0.97-0.8,1.28c-2.98,2.51-5.45,5.37-6.47,9.25v2.88
			c0.79,2.96,2.44,5.38,4.78,7.3c0.93,0.76,1.26,1.52,1.19,2.75c-0.32,5.78,2.3,8.83,8.06,9.38c4.1,0.39,8.04-0.67,11.93-1.8
			c1.5-0.44,2.99-0.94,4.48-1.41c-0.82,0.87-1.73,1.54-2.62,2.23c-3.86,3.03-7.44,6.33-9.93,10.63c-3.29,5.69-3.09,11.26,0.65,16.7
			c0.55,0.81,0.89,1.76,1.33,2.65c1.23,2.53,2.26,5.19,3.76,7.55c1.59,2.51,4.12,3.83,7.18,3.27c1.67-0.31,3.23-1.51,4.88-1.59
			c1.65-0.08,3.33,0.97,5.03,1.12c4.84,0.44,8.42-1.98,11.39-5.5c4-4.74,5.76-10.47,6.96-16.4c0.49-2.42,0.36-5,1.05-7.35
			c1-3.45,2.46-6.77,3.78-10.12c0.33-0.84,0.81-1.65,1.33-2.39c0.88-1.26,1.95-1.56,3.11-0.97c-0.08,0.19-0.14,0.39-0.24,0.58
			c-4.27,8.51-4.86,17.18-1.36,26.13c2.08,5.33,5.05,9.85,10.68,11.76c3,1.02,5.89,2.1,8.69,3.63c3.76,2.05,7.44,1.43,10.37-1.36
			c1.12-1.07,1.95-2.44,2.97-3.62c0.36-0.41,0.89-0.77,1.41-0.93c2.07-0.65,4.25-1.03,6.24-1.85c5.31-2.19,7.03-6,5.31-11.46
			c-0.25-0.79-0.09-1.15,0.55-1.58c1.83-1.24,2.83-3.03,3.16-5.2c0.61-3.99-0.49-7.7-2-11.3
			C115.37,106.23,109.13,101.98,101.35,99.69z M79.68,76.41c-0.16,0.75-0.68,0.91-1.26,0.51c-0.63-0.44-1.32-0.9-1.75-1.52
			c-1.94-2.79-2.91-5.87-2.74-9.33c0.11-2.21,0-4.44-0.17-6.65c-0.17-2.18-1.54-3.44-3.4-3.41c-1.49,0.02-3,1.48-3.03,3.37
			c-0.03,1.61,0.21,3.29,0.68,4.84c1.09,3.55,3.36,6.46,5.53,9.41c0.8,1.08,1.56,2.18,2.34,3.28c-0.1,0.17-0.21,0.34-0.31,0.51
			c-1.61-0.7-3.4-1.15-4.79-2.15C64.29,70.6,59.12,64.8,56.44,57.13c-1.01-2.88-1.67-5.87-1-8.98c0.47-2.2,1.55-4.05,3.15-5.61
			c2.2-2.13,4.82-2.41,7.65-1.63c0.63,0.17,1.24,0.4,1.93,0.63c0.09-0.18,0.2-0.35,0.26-0.55c1.46-4.5,5.91-6.74,10.29-4.88
			c7.04,2.98,9.29,7.83,8.59,15.4c-0.38,4.1-1.75,7.88-3.92,11.37c-1.8,2.89-2.99,5.95-2.93,9.46
			C80.48,73.69,79.97,75.06,79.68,76.41z M30.86,105.78c-1.96,0.23-4.01,0.2-5.97-0.08c-3.35-0.47-5.34-2.56-5.92-5.9
			c-0.13-0.75-0.43-1.09-1.11-1.37c-4.62-1.88-4.88-4.91-4.34-8.26c0.2-1.21,1.26-2.54,2.3-3.29c1.37-0.99,3.13-1.44,4.68-2.19
			c0.67-0.32,1.33-0.75,1.85-1.26c1.33-1.31,2.49-2.81,3.89-4.03c2.14-1.87,4.56-2.6,7.57-2.29c11.58,1.19,20.28,7.46,28.33,15.45
			c-2.13,0.65-4.12,1.03-5.92,1.84c-2.92,1.32-5.85,2.7-8.52,4.44C42.5,102.22,37.11,105.04,30.86,105.78z M65.56,111.32
			c-2.77,3.02-4.48,6.62-5.88,10.38c-0.94,2.52-1.68,5.12-2.35,7.72c-1.21,4.68-3.39,8.75-7.14,11.88
			c-2.88,2.41-6.03,2.91-9.48,1.25c-0.47-0.23-1.07-0.24-1.61-0.28c-1.34-0.11-2.7-0.07-4.03-0.27c-4.29-0.65-5.09-3.57-5.1-6.82
			c0-0.04,0.02-0.09,0.02-0.13c0.33-1.95,0.35-3.77-0.31-5.78c-1.15-3.53-0.16-7.15,1.73-10.15c6.09-9.69,14.49-16.35,25.98-18.56
			c2.4-0.46,4.83-0.62,7.24-0.11c0.07,0.17,0.13,0.34,0.2,0.51c-1.41,0.7-2.75,1.62-4.23,2.07c-3.9,1.18-7.49,2.82-10.27,5.9
			c-0.17,0.19-0.34,0.39-0.5,0.6c-2.1,2.71-1.87,4.09,1,5.91c-0.3,1.02-0.7,2.03-0.87,3.08c-0.29,1.84,0.83,2.82,2.65,2.44
			c1.65-0.34,3.04-1.24,3.95-2.6c1.34-1.97,2.53-4.05,3.65-6.15c1.02-1.91,2.16-3.71,4-4.89c0.97-0.62,2.14-0.95,3.48-1.51
			C67.53,108.19,66.84,109.92,65.56,111.32z M111.77,123.03c-0.38,1.61-1.1,2.99-2.29,4.17c-0.31,0.3-0.38,0.93-0.39,1.41
			c-0.01,0.51,0.21,1.02,0.28,1.53c0.75,5.24-1.61,8.39-7.27,9.48c-1.38,0.27-2.44,0.72-3.42,1.78c-1.75,1.87-4.14,2.59-6.46,1.59
			c-4.57-1.96-9.37-3.64-12.93-7.35c-3.67-3.82-5.39-8.41-5.08-13.77c0.22-3.74,0.93-7.33,2.53-10.72c0.2-0.43,0.45-0.84,0.68-1.27
			c0.06-0.11,0.13-0.22,0.3-0.52c1.44,1.86,1.6,3.81,1.84,5.74c0.19,1.54,0.31,3.14,0.82,4.59c1.07,3.07,4.58,4.2,7.26,2.36
			c0.68-0.47,1.14-1.5,1.36-2.36c0.23-0.89,0.05-1.89,0.05-2.81c0.77,0,1.62,0.05,2.47-0.01c2-0.14,3.67-0.97,4.54-2.82
			c0.92-1.95,0.55-3.91-0.9-5.46c-0.96-1.02-2.24-1.75-3.37-2.63c-1.17-0.92-2.33-1.86-3.5-2.79c0.07-0.19,0.14-0.39,0.2-0.58
			c1.35-0.03,2.71-0.19,4.04-0.07c6.61,0.6,12.3,3.17,16.46,8.45C111.74,114.49,112.81,118.56,111.77,123.03z"/>
		<path class="st0" d="M29.86,64.42c-4.8,2.44-5.7,0.61-6.72-3.1c-0.16,0.05-0.33,0.08-0.49,0.14c-1.92,0.67-2.83,0.22-3.51-1.68
			c-0.21-0.58-0.38-1.42-0.82-1.64c-1.28-0.62-2.7-1.36-4.02-1.29c-0.76,0.04-2.09,0.58-2.67,1.81c-0.27,0.58-1.27,1.14-1.95,1.14
			c-0.67,0-1.38-0.65-2.02-1.1c-0.41-0.29-0.67-0.82-1.1-1.05c-0.87-0.46-1.3-1.12-1.3-2.08c0-0.96,0.43-1.63,1.32-2.07
			c0.4-0.2,0.82-0.56,0.99-0.95c0.44-0.98,1.17-1.36,2.17-1.35c0.97,0,1.62,0.48,2.04,1.36c0.17,0.37,0.52,0.66,0.82,0.96
			c0.12,0.12,0.36,0.13,0.44,0.26c1.31,2.08,3.75,1.67,5.61,2.53c0.24,0.11,0.7-0.07,0.96-0.25c0.39-0.26,0.67-0.69,1.04-0.98
			c1.37-1.06,2.52-0.92,3.63,0.42c0.25,0.3,0.47,0.62,0.7,0.92c4.19-2.19,5.86-1.58,7.32,2.79c0.39-0.16,0.77-0.33,1.16-0.48
			c1.92-0.71,3.35-0.08,3.27,1.93c-0.08,2.3,1.25,2.86,2.85,3.63c8.33,4.01,16.5,8.29,23.82,14c3.3,2.57,6.81,4.94,9.27,8.39
			c1.3,1.82,2.36,3.85,3.29,5.89c0.66,1.46,0.01,2.81-1.2,3.29c-1.23,0.49-2.58-0.02-3.21-1.49c-4.11-9.54-11.53-15.95-20.2-21.03
			c-4.72-2.76-9.78-4.93-14.68-7.37c-0.74-0.37-1.37-0.39-1.98,0.26c-0.29,0.31-0.7,0.52-1.09,0.71c-1.53,0.76-2.59,0.36-3.25-1.2
			C30.18,65.32,30.03,64.87,29.86,64.42z"/>
		<path class="st0" d="M77.71,109.37c1.44,1.86,1.6,3.81,1.84,5.74c0.19,1.54,0.31,3.14,0.82,4.59c1.07,3.07,4.58,4.2,7.26,2.36
			c0.68-0.47,1.14-1.5,1.36-2.36c0.23-0.89,0.05-1.89,0.05-2.81c0.77,0,1.62,0.05,2.47-0.01c2-0.14,3.67-0.97,4.54-2.82
			c0.92-1.95,0.55-3.91-0.9-5.46c-0.96-1.02-2.24-1.75-3.37-2.63c-1.17-0.92-2.33-1.86-3.5-2.79c0.07-0.19,0.14-0.39,0.2-0.58
			c1.35-0.03,2.71-0.19,4.04-0.07c6.61,0.6,12.3,3.17,16.46,8.45c2.76,3.51,3.83,7.57,2.79,12.05c-0.38,1.61-1.1,2.99-2.29,4.17
			c-0.31,0.3-0.38,0.93-0.39,1.41c-0.01,0.51,0.21,1.02,0.28,1.53c0.75,5.24-1.61,8.39-7.27,9.48c-1.38,0.27-2.44,0.72-3.42,1.78
			c-1.75,1.87-4.14,2.59-6.46,1.59c-4.57-1.96-9.37-3.64-12.93-7.35c-3.67-3.82-5.39-8.41-5.08-13.77
			c0.22-3.74,0.93-7.33,2.53-10.72c0.2-0.43,0.45-0.84,0.68-1.27C77.47,109.77,77.54,109.66,77.71,109.37z"/>
		<path class="st0" d="M84.85,82.74c0.12-0.83,0.17-1.67,0.37-2.48c1.18-4.79,3.57-9.04,5.96-13.29c3.08-5.48,7.83-8.79,14.02-9.17
			c4.45-0.27,9.07,0.07,13.43,1.02c5.44,1.19,6.94,5.01,6.32,10.51c-0.33,2.97-1.19,4.48-3.76,7.81c0.6,0.87,1.27,1.72,1.81,2.65
			c1.75,2.98,1.26,5.6-1.48,7.71c-3.63,2.79-7.85,4.03-12.34,3.91c-3.46-0.1-6.97-0.46-10.32-1.27c-4.1-1-8.14-1.79-12.71-1.21
			c2.61-3.31,5.45-5.53,9.51-5.99c2.28-0.26,4.54-0.74,6.77-1.3c0.98-0.24,1.9-0.84,2.76-1.42c1.08-0.73,1.66-2.33,1.25-3.33
			c-0.48-1.16-1.58-1.23-2.64-1.29c-0.26-0.01-0.52,0-1,0c0.25-0.54,0.57-0.94,0.59-1.35c0.03-0.9,0.23-2.08-0.24-2.65
			c-0.52-0.64-1.72-1.05-2.59-0.99c-2.86,0.17-5.26,1.62-7.27,3.52c-2.52,2.38-4.8,5.02-7.18,7.56c-0.34,0.37-0.63,0.78-0.95,1.17
			C85.06,82.8,84.96,82.77,84.85,82.74z"/>
		<path class="st0" d="M64.85,100.96c-1.41,0.7-2.75,1.62-4.23,2.07c-3.9,1.18-7.49,2.82-10.27,5.9c-0.17,0.19-0.34,0.39-0.5,0.6
			c-2.1,2.71-1.87,4.09,1,5.91c-0.3,1.02-0.7,2.03-0.87,3.08c-0.29,1.84,0.83,2.82,2.65,2.44c1.65-0.34,3.04-1.24,3.95-2.6
			c1.33-1.97,2.53-4.05,3.65-6.15c1.02-1.91,2.16-3.71,4-4.89c0.97-0.62,2.14-0.94,3.48-1.51c-0.19,2.37-0.87,4.11-2.15,5.5
			c-2.77,3.02-4.48,6.62-5.88,10.38c-0.94,2.52-1.68,5.12-2.35,7.72c-1.21,4.68-3.39,8.75-7.14,11.88
			c-2.88,2.41-6.03,2.91-9.48,1.25c-0.47-0.23-1.07-0.24-1.61-0.28c-1.34-0.11-2.7-0.07-4.03-0.27c-4.29-0.65-5.09-3.57-5.1-6.82
			c0-0.04,0.02-0.09,0.02-0.13c0.33-1.95,0.35-3.77-0.31-5.78c-1.15-3.53-0.16-7.15,1.73-10.15c6.09-9.69,14.49-16.35,25.98-18.56
			c2.4-0.46,4.83-0.62,7.24-0.11C64.71,100.62,64.78,100.79,64.85,100.96z"/>
		<path class="st0" d="M75.56,77.42c-1.61-0.7-3.4-1.15-4.79-2.15C64.29,70.6,59.12,64.8,56.44,57.13c-1.01-2.88-1.67-5.87-1-8.98
			c0.47-2.2,1.55-4.05,3.15-5.61c2.2-2.13,4.82-2.41,7.65-1.63c0.63,0.17,1.24,0.4,1.93,0.63c0.09-0.18,0.2-0.35,0.26-0.55
			c1.46-4.5,5.91-6.74,10.29-4.88c7.04,2.98,9.29,7.83,8.59,15.4c-0.38,4.1-1.75,7.88-3.92,11.37c-1.8,2.89-2.99,5.95-2.93,9.46
			c0.02,1.35-0.48,2.72-0.78,4.07c-0.16,0.75-0.68,0.91-1.26,0.51c-0.63-0.44-1.32-0.9-1.75-1.52c-1.94-2.79-2.91-5.87-2.74-9.33
			c0.11-2.21,0-4.44-0.17-6.65c-0.17-2.18-1.54-3.44-3.4-3.41c-1.49,0.02-3,1.48-3.03,3.37c-0.03,1.61,0.21,3.29,0.68,4.84
			c1.09,3.55,3.36,6.46,5.53,9.41c0.8,1.08,1.56,2.18,2.34,3.28C75.77,77.07,75.67,77.25,75.56,77.42z"/>
		<path class="st0" d="M62.15,92.55c-2.13,0.65-4.12,1.03-5.92,1.84c-2.92,1.32-5.85,2.7-8.52,4.44c-5.2,3.39-10.6,6.21-16.84,6.95
			c-1.96,0.23-4.01,0.2-5.97-0.08c-3.35-0.47-5.34-2.56-5.92-5.9c-0.13-0.75-0.43-1.09-1.11-1.37c-4.62-1.88-4.88-4.91-4.34-8.26
			c0.2-1.21,1.26-2.54,2.3-3.29c1.37-0.99,3.13-1.44,4.68-2.19c0.67-0.32,1.33-0.75,1.85-1.26c1.33-1.31,2.49-2.81,3.89-4.03
			c2.14-1.87,4.56-2.6,7.57-2.29C45.4,78.29,54.09,84.56,62.15,92.55z M55.42,90.67c0.03-0.18,0.07-0.35,0.1-0.53
			c-2.72-1.1-5.37-2.45-8.18-3.2c-2.03-0.54-4.3-0.5-6.41-0.28c-0.95,0.1-2.06,1.14-2.59,2.05c-0.58,1,0.66,1.61,1.29,2.28
			c0.03,0.03,0.03,0.08,0.07,0.18c-0.17,0.15-0.37,0.31-0.55,0.48c-1.26,1.2-1.29,2.38,0.23,3.15c1.09,0.55,2.48,0.84,3.71,0.76
			C47.7,95.27,51.59,93.03,55.42,90.67z"/>
		<path class="st0" d="M55.42,90.67c-3.82,2.35-7.71,4.6-12.33,4.89c-1.23,0.08-2.61-0.21-3.71-0.76c-1.52-0.77-1.49-1.95-0.23-3.15
			c0.18-0.17,0.38-0.33,0.55-0.48c-0.04-0.1-0.04-0.15-0.07-0.18c-0.64-0.67-1.88-1.28-1.29-2.28c0.53-0.91,1.64-1.95,2.59-2.05
			c2.11-0.23,4.38-0.27,6.41,0.28c2.81,0.75,5.46,2.11,8.18,3.2C55.48,90.32,55.45,90.5,55.42,90.67z"/>
	</g>
	<text transform="matrix(1 0 0 1 97.1805 134.8024)" class="st0 st1 st2">Mahalo</text>
</g>
</svg>
